<svg xmlns="http://www.w3.org/2000/svg" width="1440" height="900" viewBox="0 0 1440 900" role="img">
  <title>Sheet Intake - fluxo</title>
  <desc>Fluxo operacional de importação Dados fictícios, sem informação real de pacientes, profissionais ou instituição.</desc>
  <defs>
    <filter id="shadow" x="-15%" y="-15%" width="130%" height="130%"><feDropShadow dx="0" dy="18" stdDeviation="18" flood-color="#0f172a" flood-opacity=".13"/></filter>
    <style>.ui{font-family:Inter,Segoe UI,Arial,sans-serif;letter-spacing:0}</style>
  </defs>
  <rect width="1440" height="900" fill="#eef5f4"/>
  <rect x="34" y="28" width="1372" height="824" rx="26" fill="#ffffff" filter="url(#shadow)"/>
  <rect x="34" y="28" width="1372" height="48" rx="26" fill="#f8fafc"/>
  <circle cx="72" cy="52" r="7" fill="#ef4444"/><circle cx="96" cy="52" r="7" fill="#f59e0b"/><circle cx="120" cy="52" r="7" fill="#22c55e"/>
  <rect x="174" y="42" width="412" height="20" rx="10" fill="#e2e8f0"/>
  <text x="82" y="122" class="ui" font-size="28" font-weight="850" fill="#101b2c">Fluxo de importação</text><text x="82" y="149" class="ui" font-size="13" font-weight="600" fill="#65758b">Leitura de Excel/CSV, layout, limpeza e commit no Sheets</text><rect x="82" y="164" width="56" height="4" rx="3" fill="#0f766e" stroke="#0f766e"/><circle cx="120" cy="290" r="32" fill="#0f766e" stroke="none" stroke-width="1"/><text x="120" y="296" class="ui" font-size="17" font-weight="850" fill="#ffffff" text-anchor="middle">1</text><text x="46" y="352" class="ui" font-size="15" font-weight="850" fill="#142033">readExcelAsValues</text><text x="46" y="376" class="ui" font-size="12" font-weight="600" fill="#66758a">XLS/XLSX via SheetJS</text><line x1="164" y1="290" x2="376" y2="290" stroke="#cbd5e1" stroke-width="3" stroke-linecap="round"/><circle cx="420" cy="290" r="32" fill="#0f766e" stroke="none" stroke-width="1"/><text x="420" y="296" class="ui" font-size="17" font-weight="850" fill="#ffffff" text-anchor="middle">2</text><text x="346" y="352" class="ui" font-size="15" font-weight="850" fill="#142033">api_ingestFile</text><text x="346" y="376" class="ui" font-size="12" font-weight="600" fill="#66758a">sugestão de rota</text><line x1="464" y1="290" x2="676" y2="290" stroke="#cbd5e1" stroke-width="3" stroke-linecap="round"/><circle cx="720" cy="290" r="32" fill="#0f766e" stroke="none" stroke-width="1"/><text x="720" y="296" class="ui" font-size="17" font-weight="850" fill="#ffffff" text-anchor="middle">3</text><text x="646" y="352" class="ui" font-size="15" font-weight="850" fill="#142033">applyLayoutSuggestion</text><text x="646" y="376" class="ui" font-size="12" font-weight="600" fill="#66758a">cabeçalho e coluna A</text><line x1="764" y1="290" x2="976" y2="290" stroke="#cbd5e1" stroke-width="3" stroke-linecap="round"/><circle cx="1020" cy="290" r="32" fill="#2563eb" stroke="none" stroke-width="1"/><text x="1020" y="296" class="ui" font-size="17" font-weight="850" fill="#ffffff" text-anchor="middle">4</text><text x="946" y="352" class="ui" font-size="15" font-weight="850" fill="#142033">api_commitImport</text><text x="946" y="376" class="ui" font-size="12" font-weight="600" fill="#66758a">gravação na aba destino</text><rect x="82" y="446" width="562" height="238" rx="16" fill="#ffffff" stroke="#dce5ef"/><text x="112" y="486" class="ui" font-size="19" font-weight="850" fill="#142033">Arquivo e limpeza automática</text><rect x="112" y="520" width="148" height="30" rx="15" fill="#e6f7ef" stroke="#e6f7ef"/><text x="186" y="540" class="ui" font-size="12" font-weight="800" fill="#0f766e" text-anchor="middle">hasHeader</text><rect x="278" y="520" width="148" height="30" rx="15" fill="#e6f7ef" stroke="#e6f7ef"/><text x="352" y="540" class="ui" font-size="12" font-weight="800" fill="#0f766e" text-anchor="middle">autoLayout</text><rect x="444" y="520" width="148" height="30" rx="15" fill="#e6f7ef" stroke="#e6f7ef"/><text x="518" y="540" class="ui" font-size="12" font-weight="800" fill="#0f766e" text-anchor="middle">headerRowNumber</text><rect x="112" y="568" width="148" height="30" rx="15" fill="#e6f7ef" stroke="#e6f7ef"/><text x="186" y="588" class="ui" font-size="12" font-weight="800" fill="#0f766e" text-anchor="middle">startColumnLetter</text><rect x="278" y="568" width="148" height="30" rx="15" fill="#e6f7ef" stroke="#e6f7ef"/><text x="352" y="588" class="ui" font-size="12" font-weight="800" fill="#0f766e" text-anchor="middle">trimCells</text><rect x="444" y="568" width="148" height="30" rx="15" fill="#e6f7ef" stroke="#e6f7ef"/><text x="518" y="588" class="ui" font-size="12" font-weight="800" fill="#0f766e" text-anchor="middle">normalizeHeaders</text><rect x="690" y="446" width="568" height="238" rx="16" fill="#ffffff" stroke="#dce5ef"/><text x="720" y="486" class="ui" font-size="19" font-weight="850" fill="#142033">Status e progresso</text><rect x="720" y="520" width="420" height="18" rx="9" fill="#e2e8f0" stroke="#e2e8f0"/><rect x="720" y="520" width="92" height="18" rx="9" fill="#0f766e" stroke="#0f766e" opacity="0.72"/><text x="1158" y="535" class="ui" font-size="12" font-weight="650" fill="#66758a">Lendo bytes…</text><rect x="720" y="556" width="420" height="18" rx="9" fill="#e2e8f0" stroke="#e2e8f0"/><rect x="720" y="556" width="184" height="18" rx="9" fill="#0f766e" stroke="#0f766e" opacity="0.72"/><text x="1158" y="571" class="ui" font-size="12" font-weight="650" fill="#66758a">Analisando cabeçalho…</text><rect x="720" y="592" width="420" height="18" rx="9" fill="#e2e8f0" stroke="#e2e8f0"/><rect x="720" y="592" width="276" height="18" rx="9" fill="#0f766e" stroke="#0f766e" opacity="0.72"/><text x="1158" y="607" class="ui" font-size="12" font-weight="650" fill="#66758a">Preparando preview…</text><rect x="720" y="628" width="420" height="18" rx="9" fill="#e2e8f0" stroke="#e2e8f0"/><rect x="720" y="628" width="368" height="18" rx="9" fill="#0f766e" stroke="#0f766e" opacity="0.72"/><text x="1158" y="643" class="ui" font-size="12" font-weight="650" fill="#66758a">Importado: 120x8</text><rect x="82" y="724" width="1176" height="188" rx="12" fill="#ffffff" stroke="#dce5ef"/><text x="100" y="754" class="ui" font-size="16" font-weight="800" fill="#142033">Persistência</text><rect x="98" y="768" width="1144" height="34" rx="8" fill="#f2f6fa" stroke="#f2f6fa"/><text x="110" y="790" class="ui" font-size="11" font-weight="800" fill="#617187">Destino</text><text x="391" y="790" class="ui" font-size="11" font-weight="800" fill="#617187">Aba</text><text x="672" y="790" class="ui" font-size="11" font-weight="800" fill="#617187">Modo</text><text x="953" y="790" class="ui" font-size="11" font-weight="800" fill="#617187">Resultado</text><line x1="100" y1="804" x2="1240" y2="804" stroke="#e7edf4" stroke-width="1" stroke-linecap="round"/><text x="110" y="826" class="ui" font-size="12" font-weight="600" fill="#2b3b4f">Base Financeiro</text><text x="391" y="826" class="ui" font-size="12" font-weight="600" fill="#2b3b4f">BASE</text><text x="672" y="826" class="ui" font-size="12" font-weight="600" fill="#2b3b4f">APPEND</text><rect x="953" y="806" width="112" height="26" rx="13" fill="#e6f7ef" stroke="#e6f7ef"/><text x="1009" y="824" class="ui" font-size="12" font-weight="800" fill="#13704c" text-anchor="middle">OK</text><line x1="100" y1="846" x2="1240" y2="846" stroke="#e7edf4" stroke-width="1" stroke-linecap="round"/><text x="110" y="868" class="ui" font-size="12" font-weight="600" fill="#2b3b4f">LOG_IMPORT</text><text x="391" y="868" class="ui" font-size="12" font-weight="600" fill="#2b3b4f">LOG</text><text x="672" y="868" class="ui" font-size="12" font-weight="600" fill="#2b3b4f">APPEND</text><rect x="953" y="848" width="112" height="26" rx="13" fill="#e6f7ef" stroke="#e6f7ef"/><text x="1009" y="866" class="ui" font-size="12" font-weight="800" fill="#13704c" text-anchor="middle">OK</text><line x1="100" y1="888" x2="1240" y2="888" stroke="#e7edf4" stroke-width="1" stroke-linecap="round"/><text x="110" y="910" class="ui" font-size="12" font-weight="600" fill="#2b3b4f">Preferências</text><text x="391" y="910" class="ui" font-size="12" font-weight="600" fill="#2b3b4f">Usuário</text><text x="672" y="910" class="ui" font-size="12" font-weight="600" fill="#2b3b4f">cache</text><rect x="953" y="890" width="112" height="26" rx="13" fill="#e6f7ef" stroke="#e6f7ef"/><text x="1009" y="908" class="ui" font-size="12" font-weight="800" fill="#13704c" text-anchor="middle">OK</text>
  <text x="1076" y="832" class="ui" font-size="11" fill="#8a98ab">Tela demonstrativa baseada no código do repositório - dados fictícios</text>
</svg>