<svg xmlns="http://www.w3.org/2000/svg" width="1440" height="900" viewBox="0 0 1440 900" role="img">
  <title>Sheet Intake - upload e regras</title>
  <desc>Upload, regras, destinos e preview Dados fictícios, sem informação real de pacientes, profissionais ou instituição.</desc>
  <defs>
    <filter id="shadow" x="-15%" y="-15%" width="130%" height="130%"><feDropShadow dx="0" dy="18" stdDeviation="18" flood-color="#0f172a" flood-opacity=".13"/></filter>
    <style>.ui{font-family:Inter,Segoe UI,Arial,sans-serif;letter-spacing:0}</style>
  </defs>
  <rect width="1440" height="900" fill="#eef5f4"/>
  <rect x="34" y="28" width="1372" height="824" rx="26" fill="#ffffff" filter="url(#shadow)"/>
  <rect x="34" y="28" width="1372" height="48" rx="26" fill="#f8fafc"/>
  <circle cx="72" cy="52" r="7" fill="#ef4444"/><circle cx="96" cy="52" r="7" fill="#f59e0b"/><circle cx="120" cy="52" r="7" fill="#22c55e"/>
  <rect x="174" y="42" width="412" height="20" rx="10" fill="#e2e8f0"/>
  <rect x="0" y="76" width="1440" height="824" rx="0" fill="#eef5f4" stroke="#eef5f4"/><rect x="82" y="104" width="1276" height="76" rx="18" fill="#ffffff" stroke="#dce5ef"/><circle cx="122" cy="142" r="22" fill="#0f766e" stroke="none" stroke-width="1"/><text x="122" y="148" class="ui" font-size="20" font-weight="850" fill="#ffffff" text-anchor="middle">S</text><text x="158" y="136" class="ui" font-size="24" font-weight="850" fill="#142033">Sheet Intake</text><text x="158" y="160" class="ui" font-size="13" font-weight="600" fill="#66758a">Upload → Padroniza → Joga na Base</text><rect x="1168" y="126" width="106" height="30" rx="15" fill="#e6f7ef" stroke="#e6f7ef"/><text x="1221" y="146" class="ui" font-size="12" font-weight="800" fill="#13704c" text-anchor="middle">Online</text><rect x="82" y="216" width="430" height="328" rx="20" fill="#ffffff" stroke="#dce5ef"/><text x="122" y="274" class="ui" font-size="22" font-weight="850" fill="#142033">1) Envie o arquivo da operação</text><text x="122" y="304" class="ui" font-size="13" font-weight="600" fill="#66758a">Formatos aceitos: CSV, XLS ou XLSX. Após</text><text x="122" y="324" class="ui" font-size="13" font-weight="600" fill="#66758a">enviar, revise a prévia e importe.</text><circle cx="296" cy="396" r="56" fill="#e6f7ef" stroke="none" stroke-width="1"/><text x="296" y="408" class="ui" font-size="42" font-weight="850" fill="#0f766e" text-anchor="middle">⇪</text><rect x="128" y="474" width="162" height="42" rx="10" fill="#ffffff" stroke="#ffffff"/><text x="209" y="500" class="ui" font-size="13" font-weight="800" fill="#142033" text-anchor="middle">Escolher arquivo</text><rect x="306" y="474" width="124" height="42" rx="10" fill="#ffffff" stroke="#ffffff"/><text x="368" y="500" class="ui" font-size="13" font-weight="800" fill="#142033" text-anchor="middle">Usar demo</text><rect x="548" y="216" width="810" height="328" rx="20" fill="#ffffff" stroke="#dce5ef"/><text x="586" y="258" class="ui" font-size="22" font-weight="850" fill="#142033">2) Configure destino e regras</text><text x="586" y="304" class="ui" font-size="11" font-weight="800" fill="#66758a">Planilha destino</text><rect x="586" y="312" width="230" height="44" rx="9" fill="#f7fafc" stroke="#d8e1ed"/><text x="600" y="342" class="ui" font-size="13" font-weight="600" fill="#26364a">Base Financeiro</text><text x="844" y="304" class="ui" font-size="11" font-weight="800" fill="#66758a">Aba destino</text><rect x="844" y="312" width="180" height="44" rx="9" fill="#f7fafc" stroke="#d8e1ed"/><text x="858" y="342" class="ui" font-size="13" font-weight="600" fill="#26364a">BASE</text><text x="1052" y="304" class="ui" font-size="11" font-weight="800" fill="#66758a">Modo</text><rect x="1052" y="312" width="150" height="44" rx="9" fill="#f7fafc" stroke="#d8e1ed"/><text x="1066" y="342" class="ui" font-size="13" font-weight="600" fill="#26364a">APPEND</text><rect x="586" y="394" width="618" height="146" rx="12" fill="#ffffff" stroke="#dce5ef"/><text x="604" y="424" class="ui" font-size="16" font-weight="800" fill="#142033">Cadastro de regras</text><rect x="602" y="438" width="586" height="34" rx="8" fill="#f2f6fa" stroke="#f2f6fa"/><text x="614" y="460" class="ui" font-size="11" font-weight="800" fill="#617187">Chave</text><text x="755" y="460" class="ui" font-size="11" font-weight="800" fill="#617187">Palavras-chave</text><text x="896" y="460" class="ui" font-size="11" font-weight="800" fill="#617187">Aba</text><text x="1037" y="460" class="ui" font-size="11" font-weight="800" fill="#617187">Modo</text><line x1="604" y1="474" x2="1186" y2="474" stroke="#e7edf4" stroke-width="1" stroke-linecap="round"/><text x="614" y="496" class="ui" font-size="12" font-weight="600" fill="#2b3b4f">internacao</text><text x="755" y="496" class="ui" font-size="12" font-weight="600" fill="#2b3b4f">leito;paciente</text><text x="896" y="496" class="ui" font-size="12" font-weight="600" fill="#2b3b4f">BASE</text><rect x="1037" y="476" width="112" height="26" rx="13" fill="#fff6df" stroke="#fff6df"/><text x="1093" y="494" class="ui" font-size="12" font-weight="800" fill="#9a6208" text-anchor="middle">APPEND</text><line x1="604" y1="516" x2="1186" y2="516" stroke="#e7edf4" stroke-width="1" stroke-linecap="round"/><text x="614" y="538" class="ui" font-size="12" font-weight="600" fill="#2b3b4f">financeiro</text><text x="755" y="538" class="ui" font-size="12" font-weight="600" fill="#2b3b4f">valor;data</text><text x="896" y="538" class="ui" font-size="12" font-weight="600" fill="#2b3b4f">BASE</text><rect x="1037" y="518" width="112" height="26" rx="13" fill="#e6f7ef" stroke="#e6f7ef"/><text x="1093" y="536" class="ui" font-size="12" font-weight="800" fill="#13704c" text-anchor="middle">REPLACE</text><rect x="82" y="590" width="1276" height="188" rx="12" fill="#ffffff" stroke="#dce5ef"/><text x="100" y="620" class="ui" font-size="16" font-weight="800" fill="#142033">PreviewTable</text><rect x="98" y="634" width="1244" height="34" rx="8" fill="#f2f6fa" stroke="#f2f6fa"/><text x="110" y="656" class="ui" font-size="11" font-weight="800" fill="#617187">Nome</text><text x="354" y="656" class="ui" font-size="11" font-weight="800" fill="#617187">data</text><text x="598" y="656" class="ui" font-size="11" font-weight="800" fill="#617187">valor</text><text x="842" y="656" class="ui" font-size="11" font-weight="800" fill="#617187">setor</text><text x="1086" y="656" class="ui" font-size="11" font-weight="800" fill="#617187">status</text><line x1="100" y1="670" x2="1340" y2="670" stroke="#e7edf4" stroke-width="1" stroke-linecap="round"/><text x="110" y="692" class="ui" font-size="12" font-weight="600" fill="#2b3b4f">João</text><text x="354" y="692" class="ui" font-size="12" font-weight="600" fill="#2b3b4f">22/12/2025</text><text x="598" y="692" class="ui" font-size="12" font-weight="600" fill="#2b3b4f">1.234,50</text><text x="842" y="692" class="ui" font-size="12" font-weight="600" fill="#2b3b4f">UTI</text><rect x="1086" y="672" width="112" height="26" rx="13" fill="#e6f7ef" stroke="#e6f7ef"/><text x="1142" y="690" class="ui" font-size="12" font-weight="800" fill="#13704c" text-anchor="middle">prévia</text><line x1="100" y1="712" x2="1340" y2="712" stroke="#e7edf4" stroke-width="1" stroke-linecap="round"/><text x="110" y="734" class="ui" font-size="12" font-weight="600" fill="#2b3b4f">Maria</text><text x="354" y="734" class="ui" font-size="12" font-weight="600" fill="#2b3b4f">21/12/2025</text><text x="598" y="734" class="ui" font-size="12" font-weight="600" fill="#2b3b4f">99,90</text><text x="842" y="734" class="ui" font-size="12" font-weight="600" fill="#2b3b4f">Clínica</text><rect x="1086" y="714" width="112" height="26" rx="13" fill="#e6f7ef" stroke="#e6f7ef"/><text x="1142" y="732" class="ui" font-size="12" font-weight="800" fill="#13704c" text-anchor="middle">prévia</text><line x1="100" y1="754" x2="1340" y2="754" stroke="#e7edf4" stroke-width="1" stroke-linecap="round"/><text x="110" y="776" class="ui" font-size="12" font-weight="600" fill="#2b3b4f">Pedro</text><text x="354" y="776" class="ui" font-size="12" font-weight="600" fill="#2b3b4f">20/12/2025</text><text x="598" y="776" class="ui" font-size="12" font-weight="600" fill="#2b3b4f">410,00</text><text x="842" y="776" class="ui" font-size="12" font-weight="600" fill="#2b3b4f">PA</text><rect x="1086" y="756" width="112" height="26" rx="13" fill="#e6f7ef" stroke="#e6f7ef"/><text x="1142" y="774" class="ui" font-size="12" font-weight="800" fill="#13704c" text-anchor="middle">prévia</text>
  <text x="1076" y="832" class="ui" font-size="11" fill="#8a98ab">Tela demonstrativa baseada no código do repositório - dados fictícios</text>
</svg>